<svg width="170" height="30" viewBox="0 0 170 30" fill="none" xmlns="http://www.w3.org/2000/svg">
<path d="M29.7998 11.7L23.9048 1.50001C23.641 1.04308 23.2614 0.663804 22.8042 0.400447C22.347 0.13709 21.8284 -0.00103539 21.3008 5.84356e-06H9.52283C8.86978 0.00175613 8.2286 0.174703 7.66325 0.501595C7.0979 0.828487 6.62814 1.2979 6.30083 1.86301L0.40583 12.063C0.142525 12.5191 0.00390625 13.0364 0.00390625 13.563C0.00390625 14.0896 0.142525 14.6069 0.40583 15.063L6.30083 25.278C6.62839 25.8436 7.09863 26.3132 7.66455 26.6402C8.23047 26.9671 8.87227 27.1398 9.52583 27.141H21.3008C21.8264 27.1399 22.3425 27.0008 22.7974 26.7376C23.2523 26.4743 23.63 26.0962 23.8928 25.641L29.7878 15.441C30.1189 14.8737 30.2943 14.229 30.2964 13.5721C30.2985 12.9153 30.1272 12.2695 29.7998 11.7ZM2.07983 13.605L2.74583 12.462L8.01083 3.32701L11.3108 9.05101C11.4648 9.29175 11.7057 9.46384 11.9834 9.53144C12.261 9.59903 12.5541 9.55693 12.8015 9.4139C13.0489 9.27087 13.2316 9.03793 13.3116 8.76357C13.3915 8.48921 13.3626 8.19457 13.2308 7.94101L10.5728 3.32701C10.3525 3.00039 10.0585 2.73007 9.71461 2.5378C9.37071 2.34553 8.98647 2.23668 8.59283 2.22001H20.4788L14.8898 11.901C14.7911 12.0714 14.6493 12.2129 14.4788 12.3114C14.3082 12.4098 14.1148 12.4618 13.9178 12.462H4.08683C3.68135 12.4593 3.28234 12.5636 2.92999 12.7643C2.57764 12.9649 2.28441 13.2549 2.07983 13.605ZM20.4788 24.924H9.93383L13.2338 19.194C13.3146 19.0677 13.369 18.9263 13.3936 18.7784C13.4183 18.6305 13.4127 18.4791 13.3772 18.3334C13.3418 18.1877 13.2771 18.0507 13.1873 17.9306C13.0974 17.8106 12.9841 17.71 12.8543 17.635C12.7245 17.5599 12.5808 17.5119 12.4319 17.494C12.283 17.476 12.1321 17.4883 11.9881 17.5303C11.8441 17.5723 11.7102 17.643 11.5943 17.7381C11.4784 17.8333 11.383 17.9509 11.3138 18.084L8.01383 23.814L7.35683 24.96C7.53828 24.6428 7.64186 24.287 7.65907 23.9219C7.67628 23.5569 7.60663 23.1929 7.45583 22.86L2.73983 14.679H13.9178C14.1147 14.6796 14.308 14.7316 14.4785 14.83C14.6491 14.9285 14.7909 15.0698 14.8898 15.24L19.8548 23.838C20.074 24.16 20.3657 24.4261 20.7065 24.6147C21.0473 24.8033 21.4276 24.9093 21.8168 24.924H20.4788ZM27.6728 14.682L22.4018 23.814L16.8008 14.133C16.7029 13.9622 16.6514 13.7688 16.6514 13.572C16.6514 13.3752 16.7029 13.1818 16.8008 13.011L22.4018 3.32701L23.0588 2.18401C22.839 2.5691 22.7341 3.00908 22.7564 3.45193C22.7787 3.89477 22.9274 4.32197 23.1848 4.68301C23.3738 4.94701 27.6848 12.459 27.6848 12.459H21.0518C20.7574 12.459 20.4751 12.576 20.2669 12.7841C20.0588 12.9923 19.9418 13.2746 19.9418 13.569C19.9418 13.8634 20.0588 14.1457 20.2669 14.3539C20.4751 14.5621 20.7574 14.679 21.0518 14.679H26.3618H26.3318C26.7373 14.6817 27.1363 14.5774 27.4887 14.3767C27.841 14.1761 28.1342 13.8861 28.3388 13.536L27.6698 14.685L27.6728 14.682Z" fill="white"/>
<path d="M94.064 7.55731C93.3792 7.54257 92.7039 7.71919 92.114 8.06731C91.5451 8.41849 91.0357 8.85799 90.605 9.36931L90.545 9.44131H90.194L89.828 7.82731H86.012C85.8706 7.82732 85.7326 7.87039 85.6163 7.95078C85.5 8.03117 85.4109 8.14506 85.361 8.27731L84.671 10.1163H89.087C89.087 10.1163 87.704 10.1163 87.704 11.2383V17.3703H86.009C85.8676 17.3703 85.7296 17.4134 85.6133 17.4938C85.497 17.5742 85.4079 17.6881 85.358 17.8203L84.668 19.6593H94.451C94.5932 19.6597 94.7321 19.6165 94.8491 19.5355C94.966 19.4545 95.0553 19.3396 95.105 19.2063L95.795 17.3673H90.485V11.8953L90.518 11.8443C90.8077 11.4014 91.1639 11.0058 91.574 10.6713C92.0629 10.299 92.667 10.11 93.281 10.1373C93.4754 10.1248 93.6696 10.1643 93.8436 10.2518C94.0177 10.3394 94.1652 10.4717 94.271 10.6353C94.4689 11.0037 94.5671 11.4173 94.556 11.8353H97.019C96.998 10.3143 96.719 9.21331 96.218 8.56231C95.9667 8.23343 95.6395 7.97025 95.2644 7.79525C94.8893 7.62024 94.4775 7.5386 94.064 7.55731Z" fill="white"/>
<path d="M109.049 13.4946C108.441 13.2038 107.806 12.9747 107.153 12.8106L105.218 12.3096C104.705 12.1788 104.203 12.0073 103.718 11.7966C103.241 11.5836 102.998 11.2836 102.998 10.8966C103.003 10.6721 103.077 10.4548 103.212 10.275C103.346 10.0953 103.534 9.96225 103.748 9.89458C104.305 9.68652 104.897 9.58969 105.491 9.60958C105.887 9.61047 106.282 9.6527 106.67 9.73558C107.054 9.817 107.432 9.92629 107.801 10.0626C108.155 10.1946 108.5 10.3416 108.821 10.4976C109.073 10.6206 109.304 10.7406 109.508 10.8576L110.651 9.00658C110.451 8.87258 110.232 8.72658 109.994 8.56858C109.644 8.35181 109.272 8.17376 108.884 8.03758C108.379 7.86103 107.862 7.7246 107.336 7.62958C106.653 7.51046 105.962 7.45422 105.269 7.46158C104.581 7.45715 103.894 7.53776 103.226 7.70158C102.656 7.83715 102.115 8.07172 101.627 8.39458C101.203 8.67919 100.848 9.05418 100.586 9.49258C100.327 9.94928 100.197 10.4678 100.211 10.9926C100.185 11.5973 100.381 12.1907 100.763 12.6606C101.16 13.1159 101.642 13.4898 102.182 13.7616C102.783 14.066 103.417 14.2986 104.072 14.4546C104.768 14.6256 105.419 14.7936 106.01 14.9586C106.53 15.0966 107.038 15.2814 107.525 15.5106C107.726 15.5816 107.902 15.7112 108.029 15.8828C108.156 16.0544 108.23 16.2602 108.239 16.4736C108.248 16.7018 108.189 16.9276 108.068 17.1214C107.947 17.3152 107.77 17.4679 107.561 17.5596C106.793 17.9256 105.671 17.9226 104.6 17.6586C104.111 17.5397 103.632 17.3853 103.166 17.1966C102.743 17.0271 102.335 16.8213 101.948 16.5816C101.675 16.4106 101.447 16.2546 101.258 16.1106L100.004 18.0756C100.689 18.6257 101.455 19.0668 102.275 19.3836C103.411 19.8105 104.619 20.0142 105.833 19.9836C107.558 19.9836 108.869 19.6386 109.733 18.9606C110.151 18.6352 110.484 18.214 110.705 17.7326C110.926 17.2512 111.028 16.7236 111.002 16.1946C111.026 15.6024 110.831 15.0222 110.453 14.5656C110.061 14.1185 109.584 13.7543 109.049 13.4946Z" fill="white"/>
<path d="M124.668 16.4284C124.414 16.6373 124.142 16.824 123.855 16.9864C123.535 17.1658 123.196 17.3077 122.844 17.4094C122.435 17.5253 122.012 17.5819 121.587 17.5774C121.185 17.597 120.784 17.5248 120.414 17.3663C120.043 17.2078 119.714 16.9671 119.451 16.6624C118.95 16.0624 118.695 15.1024 118.695 13.8034V10.1014H124.248L125.1 7.81241H118.698V4.19141L116.424 4.83941C116.279 4.88109 116.151 4.96891 116.06 5.0896C115.969 5.21029 115.92 5.3573 115.92 5.50841V7.82141H114.837C114.696 7.82142 114.558 7.86449 114.441 7.94488C114.325 8.02526 114.236 8.13916 114.186 8.27141L113.496 10.1104H117.411C117.411 10.1104 115.911 10.1104 115.911 11.2894V13.7914C115.911 15.9484 116.358 17.5384 117.243 18.5134C118.128 19.4884 119.457 19.9774 121.218 19.9774C121.723 19.9753 122.226 19.919 122.718 19.8094C123.221 19.7002 123.713 19.5445 124.188 19.3444C124.645 19.1519 125.085 18.92 125.502 18.6514C125.832 18.4431 126.134 18.1941 126.402 17.9104L125.145 16.0234L124.668 16.4284Z" fill="white"/>
<path d="M139.007 17.1736C138.991 16.9736 138.967 16.7576 138.935 16.5256C138.901 16.0896 138.884 15.6966 138.884 15.3466C138.884 14.8846 138.914 14.3506 138.971 13.7596C139.028 13.1686 139.055 12.4756 139.055 11.6596C139.062 11.0839 138.982 10.5105 138.818 9.95863C138.673 9.48423 138.417 9.05125 138.071 8.69563C137.686 8.31978 137.219 8.03929 136.706 7.87663C136.027 7.66343 135.318 7.56211 134.606 7.57663C133.598 7.55697 132.591 7.65768 131.606 7.87663C130.9 8.04621 130.209 8.27192 129.539 8.55163L130.175 10.6516C130.666 10.4433 131.166 10.2601 131.675 10.1026C132.419 9.87648 133.193 9.76618 133.97 9.77563C134.57 9.73689 135.167 9.89259 135.671 10.2196C136.079 10.5196 136.271 11.0296 136.271 11.7196V12.1756C136.272 12.3559 136.255 12.5357 136.22 12.7126L136.196 12.8956H136.019C135.545 12.8636 135.145 12.8306 134.819 12.7966C134.501 12.7636 134.198 12.7486 133.919 12.7486C133.178 12.7417 132.438 12.8181 131.714 12.9766C131.125 13.1022 130.563 13.3329 130.055 13.6576C129.619 13.9433 129.265 14.3385 129.029 14.8036C128.781 15.3292 128.66 15.9056 128.675 16.4866C128.654 16.9428 128.733 17.3982 128.907 17.8206C129.08 18.243 129.344 18.6222 129.68 18.9316C130.352 19.5316 131.279 19.8586 132.44 19.8586C133.249 19.8989 134.054 19.7185 134.768 19.3366C135.298 19.0272 135.75 18.6015 136.091 18.0916L136.151 17.9986H136.55L136.871 19.6636H139.604C139.766 19.6636 139.924 19.607 140.048 19.5035C140.173 19.3999 140.258 19.256 140.288 19.0966L140.612 17.3746H139.037L139.007 17.1736ZM136.253 16.1326L136.229 16.1776C136.005 16.5673 135.697 16.9031 135.329 17.1616C134.773 17.5091 134.121 17.6728 133.466 17.6296C132.794 17.6296 132.317 17.4886 132.008 17.1946C131.852 17.0375 131.731 16.8497 131.651 16.6431C131.572 16.4366 131.536 16.2157 131.546 15.9946C131.54 15.6979 131.63 15.407 131.804 15.1666C131.976 14.9392 132.199 14.7553 132.455 14.6296C132.732 14.4887 133.027 14.3877 133.331 14.3296C134 14.2184 134.682 14.2093 135.353 14.3026C135.683 14.3446 135.926 14.3806 136.094 14.4136L136.256 14.4466V16.1296L136.253 16.1326Z" fill="white"/>
<path d="M150.248 13.2008L155.009 7.82778H151.796L147.794 12.6908H146.762V2.92578H143.318C143.176 2.9258 143.038 2.96886 142.922 3.04925C142.806 3.12964 142.717 3.24353 142.667 3.37578L141.977 5.21478H145.331C145.331 5.21478 143.984 5.21478 143.984 6.19878V19.6538H146.762V14.5868H147.914L152.114 19.6538H154.442C154.584 19.6542 154.723 19.6109 154.84 19.5299C154.957 19.4489 155.046 19.3341 155.096 19.2008L155.786 17.3618H153.614L150.248 13.2008Z" fill="white"/>
<path d="M65.7892 7.8155C65.6418 7.81542 65.4981 7.86215 65.379 7.94895C65.2598 8.03575 65.1713 8.15815 65.1262 8.2985L62.6032 15.3245H62.1472L58.7812 7.8245H56.3332C56.1918 7.82452 56.0538 7.86758 55.9375 7.94797C55.8212 8.02836 55.7322 8.14225 55.6822 8.2745L54.9922 10.1135H58.4092C58.4092 10.1135 56.7772 10.1135 57.3982 11.6135L60.8512 19.6475H63.7432L68.2642 7.8125L65.7892 7.8155Z" fill="white"/>
<path d="M51.5215 8.52531C50.9942 8.14407 50.3983 7.86803 49.7665 7.71231C48.3134 7.34714 46.7867 7.40018 45.3625 7.86531C44.6149 8.11153 43.9265 8.50989 43.3405 9.03531C42.7567 9.57977 42.299 10.2453 41.9995 10.9853C41.6514 11.8588 41.4821 12.7932 41.5015 13.7333C41.4865 14.6296 41.6349 15.5212 41.9395 16.3643C42.2105 17.1081 42.645 17.7816 43.2109 18.3351C43.7769 18.8886 44.4599 19.3079 45.2095 19.5623C46.0894 19.8601 47.0137 20.0052 47.9425 19.9913C48.5425 19.9913 51.2785 19.8893 53.3755 18.3893L52.9885 16.4333C51.5364 17.3512 49.8553 17.8419 48.1375 17.8493C47.6571 17.8557 47.1776 17.8043 46.7095 17.6963C46.2758 17.5939 45.8642 17.414 45.4945 17.1653C45.1354 16.9205 44.8377 16.5961 44.6245 16.2173C44.3917 15.7815 44.2692 15.2954 44.2675 14.8013V14.5943H53.0995C53.2331 13.9112 53.3034 13.2173 53.3095 12.5213C53.3398 11.6758 53.167 10.8353 52.8055 10.0703C52.5039 9.46218 52.0642 8.93307 51.5215 8.52531ZM50.7655 12.6623H44.3245L44.3425 12.4463C44.3725 12.0234 44.4987 11.613 44.7115 11.2463C44.9149 10.8952 45.1874 10.5891 45.5125 10.3463C45.838 10.1054 46.2022 9.92175 46.5895 9.80331C46.998 9.67953 47.4227 9.61784 47.8495 9.62031C48.8155 9.62031 49.5535 9.88131 50.0395 10.3943C50.5442 10.9622 50.8059 11.7055 50.7685 12.4643L50.7655 12.6623Z" fill="white"/>
<path d="M80.0091 8.52531C79.4818 8.14407 78.8859 7.86803 78.2541 7.71231C76.8011 7.34714 75.2744 7.40018 73.8501 7.86531C73.1026 8.11153 72.4141 8.50989 71.8281 9.03531C71.2393 9.57739 70.7764 10.242 70.4721 10.9823C70.1241 11.8558 69.9548 12.7902 69.9742 13.7303C69.9591 14.6266 70.1076 15.5182 70.4121 16.3613C70.6844 17.1064 71.1207 17.7806 71.6888 18.3342C72.2569 18.8878 72.9423 19.3065 73.6941 19.5593C74.574 19.8571 75.4983 20.0022 76.4271 19.9883C77.0271 19.9883 79.7631 19.8863 81.8601 18.3863L81.4821 16.4363C80.03 17.3542 78.349 17.8449 76.6311 17.8523C76.1492 17.855 75.6688 17.7996 75.2001 17.6873C74.7665 17.5849 74.3549 17.405 73.9851 17.1563C73.6235 16.9084 73.3247 16.5798 73.1121 16.1963C72.8794 15.7605 72.7568 15.2744 72.7551 14.7803V14.5733H81.6021C81.7357 13.8902 81.806 13.1963 81.8121 12.5003C81.8392 11.6573 81.6643 10.82 81.3021 10.0583C80.9964 9.45357 80.5536 8.92862 80.0091 8.52531ZM79.2531 12.6623H72.8121L72.8301 12.4463C72.8602 12.0234 72.9864 11.613 73.1991 11.2463C73.4025 10.8952 73.675 10.5891 74.0001 10.3463C74.3257 10.1054 74.6899 9.92175 75.0771 9.80331C75.4856 9.67953 75.9103 9.61784 76.3371 9.62031C77.3031 9.62031 78.0411 9.88131 78.5271 10.3943C79.0318 10.9622 79.2936 11.7055 79.2561 12.4643L79.2531 12.6623Z" fill="white"/>
<path d="M167.564 8.52531C167.036 8.14407 166.441 7.86803 165.809 7.71231C164.356 7.34714 162.829 7.40018 161.405 7.86531C160.657 8.11153 159.969 8.50989 159.383 9.03531C158.794 9.57739 158.331 10.242 158.027 10.9823C157.679 11.8558 157.509 12.7902 157.529 13.7303C157.514 14.6266 157.662 15.5182 157.967 16.3613C158.239 17.1072 158.676 17.7823 159.244 18.3364C159.813 18.8906 160.499 19.3096 161.252 19.5623C162.132 19.8601 163.056 20.0052 163.985 19.9913C164.585 19.9913 167.321 19.8893 169.418 18.3893L169.031 16.4333C167.579 17.3512 165.898 17.8419 164.18 17.8493C163.698 17.852 163.217 17.7966 162.749 17.6843C162.315 17.5819 161.904 17.402 161.534 17.1533C161.175 16.9085 160.877 16.5841 160.664 16.2053C160.431 15.7695 160.308 15.2834 160.307 14.7893V14.5823H169.16C169.293 13.8992 169.364 13.2053 169.37 12.5093C169.4 11.6638 169.227 10.8233 168.866 10.0583C168.558 9.45261 168.112 8.92758 167.564 8.52531ZM166.802 12.6623H160.367L160.385 12.4463C160.415 12.0234 160.541 11.613 160.754 11.2463C160.957 10.8952 161.23 10.5891 161.555 10.3463C161.88 10.1054 162.245 9.92175 162.632 9.80331C163.04 9.67953 163.465 9.61784 163.892 9.62031C164.858 9.62031 165.596 9.88131 166.082 10.3943C166.586 10.9622 166.848 11.7055 166.811 12.4643L166.802 12.6623Z" fill="white"/>
</svg>
